<?xml version="1.0" encoding="UTF-8"?>
<svg version="1.1" xmlns="http://www.w3.org/2000/svg" width="483" height="222">
<path d="M0 0 C3.68676158 1.80424757 7.28826151 3.71032871 10.87109375 5.7109375 C11.4945166 6.05817871 12.11793945 6.40541992 12.76025391 6.76318359 C16.82145355 9.03791941 20.84836687 11.36877359 24.87109375 13.7109375 C26.06342171 14.38869043 27.25613462 15.06576658 28.44921875 15.7421875 C31.40604263 17.44337384 34.29733916 19.20647549 37.18359375 21.0234375 C47.34311611 27.31209847 57.75734508 33.18018721 68.12304688 39.12036133 C69.02990234 39.64525146 69.93675781 40.1701416 70.87109375 40.7109375 C71.78213867 41.23461914 72.69318359 41.75830078 73.63183594 42.29785156 C76.09176066 43.85018958 77.15181671 45.16306952 78.62109375 47.6484375 C79.23210937 48.65197266 79.23210937 48.65197266 79.85546875 49.67578125 C82.1928922 54.35961824 82.02510861 59.08634865 82.03222656 64.22387695 C82.03719147 65.08128479 82.04215637 65.93869263 82.04727173 66.82208252 C82.06186614 69.65613612 82.06869084 72.49013375 82.07421875 75.32421875 C82.07997246 77.29713441 82.08573016 79.27005006 82.0914917 81.2429657 C82.10199395 85.37967184 82.10784169 89.51635858 82.11132812 93.65307617 C82.11681109 98.94575997 82.14083824 104.23818629 82.16930008 109.53078938 C82.18795188 113.60665122 82.19313342 117.68245136 82.194664 121.75835228 C82.19768533 123.70913284 82.20569626 125.65991245 82.21884918 127.61065102 C82.23596272 130.34390309 82.23401649 133.07653008 82.22753906 135.80981445 C82.23675385 136.61057907 82.24596863 137.41134369 82.25546265 138.2363739 C82.20737607 144.73553981 80.8684787 149.40651651 76.5078125 154.4375 C73.97990398 156.61711891 71.54214065 158.36839028 68.68359375 160.0859375 C68.14371826 160.41134521 67.60384277 160.73675293 67.04760742 161.07202148 C58.15001377 166.39256203 49.13421523 171.51850449 40.14286804 176.67814636 C36.03000667 179.04010502 31.92718367 181.41887084 27.828125 183.8046875 C26.6715316 184.47659045 25.51487538 185.14838526 24.3581543 185.82006836 C22.18749164 187.08123109 20.01827524 188.3448879 17.85083008 189.61157227 C-4.61803553 202.64022416 -4.61803553 202.64022416 -12.12890625 200.7109375 C-23.20543962 196.4365906 -33.41982597 189.54921547 -43.609375 183.54296875 C-49.1625933 180.27058159 -54.74061543 177.04344425 -60.32885742 173.83129883 C-64.64552652 171.3499898 -68.95676176 168.85935927 -73.26660156 166.36621094 C-75.06965926 165.32350101 -76.8735764 164.28227444 -78.67871094 163.24316406 C-80.8130933 162.01182421 -82.94089858 160.77001397 -85.06640625 159.5234375 C-86.18917969 158.86988281 -87.31195313 158.21632812 -88.46875 157.54296875 C-91.02799369 155.78043528 -92.5500586 154.36802257 -94.12890625 151.7109375 C-94.12890625 151.0509375 -94.12890625 150.3909375 -94.12890625 149.7109375 C-94.78890625 149.3809375 -95.44890625 149.0509375 -96.12890625 148.7109375 C-97.44704162 144.7565314 -97.25449977 140.98939637 -97.22998047 136.8684082 C-97.22840439 135.96398483 -97.22682831 135.05956146 -97.22520447 134.12773132 C-97.2177022 131.13066456 -97.20168647 128.1337395 -97.18359375 125.13671875 C-97.17788486 124.11239431 -97.17217598 123.08806988 -97.1662941 122.03270531 C-97.13474382 116.60938612 -97.09580186 111.18617072 -97.05175781 105.76293945 C-97.00804523 100.16884394 -96.992194 94.57502899 -96.98252678 88.98078632 C-96.96963883 84.673091 -96.93491481 80.36576447 -96.89441299 76.05824852 C-96.87895046 73.99671131 -96.87182704 71.93509357 -96.87331772 69.87349892 C-96.87349781 66.98176084 -96.84248021 64.09189003 -96.80419922 61.20043945 C-96.81125381 60.35494537 -96.81830841 59.50945129 -96.82557678 58.63833618 C-96.69872013 52.59147695 -95.05246544 48.35882264 -91.12890625 43.7109375 C-88.95359243 41.98226343 -86.73652743 40.69955544 -84.25390625 39.4609375 C-83.66738281 39.14898437 -83.08085938 38.83703125 -82.4765625 38.515625 C-81.29904855 37.88934285 -80.11707665 37.27136598 -78.93066406 36.66210938 C-77.02165978 35.65432066 -75.1682009 34.57248841 -73.30859375 33.4765625 C-70.12890625 31.7109375 -70.12890625 31.7109375 -68.12890625 31.7109375 C-68.12890625 31.0509375 -68.12890625 30.3909375 -68.12890625 29.7109375 C-65.81890625 29.0509375 -63.50890625 28.3909375 -61.12890625 27.7109375 C-61.12890625 27.0509375 -61.12890625 26.3909375 -61.12890625 25.7109375 C-60.36707031 25.34742187 -59.60523438 24.98390625 -58.8203125 24.609375 C-52.87414435 21.71423695 -47.32408984 18.70185295 -41.96875 14.8125 C-40.12890625 13.7109375 -40.12890625 13.7109375 -37.12890625 13.7109375 C-37.12890625 13.0509375 -37.12890625 12.3909375 -37.12890625 11.7109375 C-34.81890625 11.0509375 -32.50890625 10.3909375 -30.12890625 9.7109375 C-30.12890625 9.0509375 -30.12890625 8.3909375 -30.12890625 7.7109375 C-26.14041799 5.68722178 -22.13827662 3.69292814 -18.12890625 1.7109375 C-17.44441406 1.35902344 -16.75992188 1.00710937 -16.0546875 0.64453125 C-10.25170084 -2.15551126 -5.8539854 -2.41175429 0 0 Z M-43.87890625 64.15234375 C-52.90183224 74.4127891 -59.27177485 88.39017888 -58.4453125 102.38671875 C-56.23636157 118.61296325 -50.94002472 132.04710509 -37.8671875 142.5234375 C-27.21935839 149.95647702 -16.10386733 153.32879279 -3.12890625 152.7109375 C-2.79890625 152.3809375 -2.46890625 152.0509375 -2.12890625 151.7109375 C-0.77837811 151.55135649 0.57718537 151.43365474 1.93359375 151.3359375 C6.66930893 150.87299098 10.49234744 149.54204959 14.87109375 147.7109375 C14.87109375 147.0509375 14.87109375 146.3909375 14.87109375 145.7109375 C15.86109375 145.3809375 16.85109375 145.0509375 17.87109375 144.7109375 C17.21109375 144.0509375 16.55109375 143.3909375 15.87109375 142.7109375 C14.96875 142.741875 14.06640625 142.7728125 13.13671875 142.8046875 C9.05086411 142.68739024 7.05024215 141.38215709 3.62109375 139.2109375 C0.00137093 136.63723797 0.00137093 136.63723797 -4.12890625 135.7109375 C-4.38542969 135.12183594 -4.64195312 134.53273438 -4.90625 133.92578125 C-6.24030392 131.50914045 -7.65247352 130.12289366 -9.69140625 128.2734375 C-17.41834511 120.74318436 -23.21582942 111.26234674 -28.12890625 101.7109375 C-28.90234375 100.27427734 -28.90234375 100.27427734 -29.69140625 98.80859375 C-32.83534573 92.81545911 -35.0597192 87.38988515 -36.12890625 80.7109375 C-36.33515625 79.8859375 -36.54140625 79.0609375 -36.75390625 78.2109375 C-37.8010035 71.23028918 -37.34983298 66.01858569 -34.12890625 59.7109375 C-33.46890625 59.7109375 -32.80890625 59.7109375 -32.12890625 59.7109375 C-32.12890625 59.0509375 -32.12890625 58.3909375 -32.12890625 57.7109375 C-21.40220192 58.39562076 -11.92401289 65.46812226 -4.77636719 73.16796875 C9.56713425 89.60131937 22.19312453 110.68382643 21.93359375 133.0234375 C21.92908203 133.76400391 21.92457031 134.50457031 21.91992188 135.26757812 C21.9082155 137.08206649 21.89028273 138.89651284 21.87109375 140.7109375 C28.99896882 138.30203691 33.01009582 132.99120198 36.6484375 126.578125 C43.7130016 111.96535915 45.03963754 97.25335566 39.87109375 81.7109375 C33.99229417 67.86628482 24.85055189 58.37795513 11.00390625 52.4921875 C-8.62761201 45.04391499 -28.73888011 49.38583799 -43.87890625 64.15234375 Z " fill="#FEFEFE" transform="translate(133.12890625,7.2890625)"/>
<path d="M0 0 C0.66 -0.33 1.32 -0.66 2 -1 C13.29403507 -2.03134153 13.29403507 -2.03134153 17.75 1 C18.86375 1.99 18.86375 1.99 20 3 C20.7425 2.34 21.485 1.68 22.25 1 C27.04034434 -2.16322025 32.50742981 -1.964513 38 -1 C42.99569786 1.48032016 45.2454223 4.97857226 47.37489319 10.06239319 C48.37553271 13.16401665 48.22689464 16.01214082 48.07421875 19.24609375 C48.03455742 20.23005882 48.03455742 20.23005882 47.99409485 21.23390198 C47.9072166 23.30278968 47.79777725 25.36974131 47.6875 27.4375 C47.62414819 28.85084489 47.56228546 30.26425737 47.50195312 31.67773438 C47.35457325 35.11996307 47.17664293 38.55865515 47 42 C40.4 42 33.8 42 27 42 C26.67 33.09 26.34 24.18 26 15 C25.34 15 24.68 15 24 15 C23.67 23.91 23.34 32.82 23 42 C19.720625 42.020625 16.44125 42.04125 13.0625 42.0625 C12.02746338 42.071604 10.99242676 42.08070801 9.92602539 42.09008789 C9.11641357 42.09258545 8.30680176 42.09508301 7.47265625 42.09765625 C6.22367554 42.10551147 6.22367554 42.10551147 4.94946289 42.11352539 C3 42 3 42 2 41 C1.92487944 39.24236663 1.91683322 37.4817728 1.9375 35.72265625 C1.94523437 34.65208984 1.95296875 33.58152344 1.9609375 32.47851562 C1.9869345 30.20507761 2.01297602 27.93164011 2.0390625 25.65820312 C2.04679687 24.58634766 2.05453125 23.51449219 2.0625 22.41015625 C2.07410156 21.42152588 2.08570313 20.43289551 2.09765625 19.41430664 C2.16503681 16.98782439 2.16503681 16.98782439 1 15 C0.34 15.33 -0.32 15.66 -1 16 C-1.33 24.58 -1.66 33.16 -2 42 C-8.93 42 -15.86 42 -23 42 C-23 28.14 -23 14.28 -23 0 C-6 -1 -6 -1 0 0 Z " fill="#FDFDFD" transform="translate(327,90)"/>
<path d="M0 0 C0.68191406 -0.01611328 1.36382812 -0.03222656 2.06640625 -0.04882812 C7.04418262 -0.05356886 10.60535844 1.06624357 15.125 3.3125 C15.88167969 3.67730469 16.63835937 4.04210937 17.41796875 4.41796875 C22.64248948 7.40187028 25.20978501 10.5993163 27.125 16.3125 C28.40247693 21.03916464 28.3087174 25.76435916 28.3125 30.625 C28.32474609 31.44162109 28.33699219 32.25824219 28.34960938 33.09960938 C28.36865722 41.06795686 27.33275246 47.94746922 22.125 54.3125 C12.90268991 61.52996007 2.31723913 61.31945684 -8.875 60.3125 C-15.11042147 58.94248459 -19.96914277 56.48201692 -23.875 51.3125 C-28.11154553 44.22957032 -28.38070461 37.97444248 -27.9375 29.875 C-27.90172852 28.27301758 -27.90172852 28.27301758 -27.86523438 26.63867188 C-27.54346626 19.42313198 -26.21662059 13.2300573 -21.875 7.3125 C-19.01678361 5.17136155 -16.17163327 3.6672808 -12.875 2.3125 C-12.11960937 1.94769531 -11.36421875 1.58289063 -10.5859375 1.20703125 C-7.04655684 0.03913763 -3.68545749 -0.01722176 0 0 Z M-2.125 18 C-4.01009577 19.21001355 -4.01009577 19.21001355 -4.875 21.3125 C-5.11214528 24.4527818 -5.0601834 27.60173801 -5.0625 30.75 C-5.07474609 31.62205078 -5.08699219 32.49410156 -5.09960938 33.39257812 C-5.10154297 34.23111328 -5.10347656 35.06964844 -5.10546875 35.93359375 C-5.10957764 36.7011499 -5.11368652 37.46870605 -5.11791992 38.25952148 C-4.99550975 40.62257913 -4.99550975 40.62257913 -2.875 43.3125 C-1.0227633 44.31728037 -1.0227633 44.31728037 1.125 44.3125 C3.31083224 43.17983523 3.31083224 43.17983523 5.125 41.3125 C5.95353701 37.86335919 5.72774711 34.34951112 5.6875 30.8125 C5.71134766 29.84957031 5.73519531 28.88664062 5.75976562 27.89453125 C5.75426203 25.26381288 5.67984264 22.88450516 5.125 20.3125 C2.4665817 17.87091843 1.39173309 16.92544267 -2.125 18 Z " fill="#FDFDFD" transform="translate(270.875,72.6875)"/>
<path d="M0 0 C0.57234375 -0.29777344 1.1446875 -0.59554687 1.734375 -0.90234375 C6.47849968 -3.20079036 11.89668616 -2.80290516 17 -2 C22.20658511 0.82983863 25.16562799 4.40113112 27 10 C27.24291992 13.30566406 27.24291992 13.30566406 27.23046875 17.015625 C27.23001053 17.67205994 27.22955231 18.32849487 27.2290802 19.00482178 C27.2260741 20.38311588 27.21823731 21.76140708 27.20581055 23.13964844 C27.18743681 25.25728253 27.18530188 27.37448163 27.18554688 29.4921875 C27.14760674 39.85239326 27.14760674 39.85239326 26 41 C24.43827255 41.08685603 22.87270656 41.10702219 21.30859375 41.09765625 C20.36435547 41.09443359 19.42011719 41.09121094 18.44726562 41.08789062 C17.45404297 41.07951172 16.46082031 41.07113281 15.4375 41.0625 C14.44041016 41.05798828 13.44332031 41.05347656 12.41601562 41.04882812 C9.94395151 41.03700007 7.47200482 41.02051849 5 41 C5.00523682 40.2886792 5.01047363 39.5773584 5.01586914 38.84448242 C5.03664018 35.62549725 5.04966058 32.40652617 5.0625 29.1875 C5.07087891 28.06794922 5.07925781 26.94839844 5.08789062 25.79492188 C5.09111328 24.72177734 5.09433594 23.64863281 5.09765625 22.54296875 C5.10289307 21.55321045 5.10812988 20.56345215 5.11352539 19.54370117 C5.11069959 16.87607266 5.11069959 16.87607266 4 14 C2.68 14.33 1.36 14.66 0 15 C-0.33 23.58 -0.66 32.16 -1 41 C-4.25875 41.020625 -7.5175 41.04125 -10.875 41.0625 C-12.41389893 41.07615601 -12.41389893 41.07615601 -13.98388672 41.09008789 C-14.79100098 41.09258545 -15.59811523 41.09508301 -16.4296875 41.09765625 C-17.67081299 41.10551147 -17.67081299 41.10551147 -18.93701172 41.11352539 C-21 41 -21 41 -23 40 C-23 26.8 -23 13.6 -23 0 C-19.72913838 -1.63543081 -16.10046656 -1.42398873 -12.5 -1.625 C-11.71496094 -1.6765625 -10.92992187 -1.728125 -10.12109375 -1.78125 C-5.94874549 -2.02457734 -3.67235803 -1.83617901 0 0 Z " fill="#FDFDFD" transform="translate(402,91)"/>
<path d="M0 0 C3.14581423 -0.02888514 6.29159469 -0.04675923 9.4375 -0.0625 C10.33533203 -0.07087891 11.23316406 -0.07925781 12.15820312 -0.08789062 C13.01220703 -0.09111328 13.86621094 -0.09433594 14.74609375 -0.09765625 C15.93223267 -0.10551147 15.93223267 -0.10551147 17.14233398 -0.11352539 C19 0 19 0 20 1 C20.10110353 3.9453557 20.13969279 6.8667756 20.1328125 9.8125 C20.13424759 11.13858276 20.13424759 11.13858276 20.13571167 12.49145508 C20.13639351 14.36442129 20.13453893 16.23738986 20.13037109 18.11035156 C20.12502289 20.98768388 20.13031593 23.86486008 20.13671875 26.7421875 C20.13605797 28.55729201 20.13477681 30.37239643 20.1328125 32.1875 C20.13483673 33.05415283 20.13686096 33.92080566 20.13894653 34.8137207 C20.11495009 40.88504991 20.11495009 40.88504991 19 42 C17.59651265 42.09860131 16.18819523 42.13078937 14.78125 42.1328125 C13.50701172 42.13474609 13.50701172 42.13474609 12.20703125 42.13671875 C10.86705078 42.13091797 10.86705078 42.13091797 9.5 42.125 C8.60667969 42.12886719 7.71335937 42.13273437 6.79296875 42.13671875 C5.94347656 42.13542969 5.09398437 42.13414062 4.21875 42.1328125 C3.43435547 42.13168457 2.64996094 42.13055664 1.84179688 42.12939453 C0 42 0 42 -1 41 C-1.01698933 37.96845465 -0.97074045 34.96244596 -0.87890625 31.93359375 C-0.85529526 31.02497086 -0.83168427 30.11634796 -0.80735779 29.18019104 C-0.73052149 26.26580954 -0.64658363 23.35168056 -0.5625 20.4375 C-0.50929928 18.46680941 -0.45655877 16.49610634 -0.40429688 14.52539062 C-0.27487948 9.68343255 -0.13909094 4.84168946 0 0 Z " fill="#FDFDFD" transform="translate(435,90)"/>
<path d="M0 0 C0.02698422 2.43757413 0.04683099 4.87484915 0.0625 7.3125 C0.07087891 8.00279297 0.07925781 8.69308594 0.08789062 9.40429688 C0.10307906 12.5483025 0.00193327 14.99420019 -1 18 C-5.95 18 -10.9 18 -16 18 C-16 17.34 -16 16.68 -16 16 C-16.99 15.67 -17.98 15.34 -19 15 C-19 10.38 -19 5.76 -19 1 C-16.02085163 0.83300069 -13.04168271 0.66638454 -10.0625 0.5 C-8.78729492 0.42845703 -8.78729492 0.42845703 -7.48632812 0.35546875 C-6.67744141 0.31035156 -5.86855469 0.26523438 -5.03515625 0.21875 C-4.2862915 0.17685547 -3.53742676 0.13496094 -2.76586914 0.09179688 C-1.84464901 0.0439082 -0.92246402 0 0 0 Z M-11 15 C-11 15.33 -11 15.66 -11 16 C-8.69 16 -6.38 16 -4 16 C-4 15.67 -4 15.34 -4 15 C-6.31 15 -8.62 15 -11 15 Z " fill="#FDFDFD" transform="translate(454,71)"/>
<path d="M0 0 C2 1 2 1 2 1 Z " fill="#FFFFFF" transform="translate(400,90)"/>
</svg>
