<?xml version="1.0" encoding="UTF-8"?>
<svg version="1.1" xmlns="http://www.w3.org/2000/svg" width="373" height="209">
<path d="M0 0 C1.66107271 0.79781879 3.29172877 1.6601894 4.8984375 2.5625 C6.35588379 3.37702637 6.35588379 3.37702637 7.84277344 4.20800781 C9.40560059 5.09504395 9.40560059 5.09504395 11 6 C12.07024414 6.60424805 13.14048828 7.20849609 14.24316406 7.83105469 C21.39379775 11.88356561 28.52010555 15.97887954 35.64599609 20.07470703 C38.56910055 21.75265155 41.49676038 23.42226273 44.42578125 25.08984375 C45.93007561 25.95505473 47.43401765 26.82087875 48.9375 27.6875 C49.59766113 28.06036133 50.25782227 28.43322266 50.93798828 28.81738281 C56.02595428 31.77534553 59.73698252 35.10547377 63 40 C63.26742554 43.05378723 63.26742554 43.05378723 63.29052734 46.85473633 C63.29724457 47.54779373 63.30396179 48.24085114 63.31088257 48.95491028 C63.32988809 51.2473568 63.33378829 53.53951083 63.3359375 55.83203125 C63.34236473 57.42762879 63.34909304 59.02322514 63.35610962 60.61882019 C63.36808951 63.96539033 63.37178982 67.3118572 63.37060547 70.65844727 C63.37040248 74.93915428 63.39767991 79.21919589 63.43214989 83.49974537 C63.45443127 86.79667681 63.4584426 90.0934486 63.45738602 93.39044762 C63.45974107 94.96805802 63.46855926 96.5456729 63.48405075 98.123209 C63.50373267 100.33496711 63.49786517 102.54529707 63.48583984 104.75708008 C63.48868988 106.01378006 63.49153992 107.27048004 63.49447632 108.56526184 C62.77697819 113.54915715 60.6256576 116.73286285 56.6796875 119.80859375 C55.75414062 120.34613281 54.82859375 120.88367188 53.875 121.4375 C53.33713867 121.75477051 52.79927734 122.07204102 52.24511719 122.39892578 C50.17200117 123.61460102 48.08595734 124.80648833 46 126 C43.98656435 127.16464775 41.9735811 128.33007778 39.9609375 129.49609375 C35.46254259 132.0985231 30.95937524 134.69244925 26.453125 137.28125 C20.24390155 140.85237674 14.06303562 144.46947891 7.89941406 148.11865234 C1.85741943 151.69259313 -1.92841967 152.95482289 -9 152 C-12.80073182 150.53508977 -16.16164212 148.50484977 -19.625 146.375 C-21.09694824 145.50560791 -21.09694824 145.50560791 -22.59863281 144.61865234 C-24.67596284 143.39036101 -26.7481499 142.15333521 -28.81542969 140.90820312 C-32.0077864 138.99533437 -35.22121985 137.12443804 -38.4453125 135.265625 C-44.31694792 131.87645282 -50.18124284 128.47936254 -56 125 C-57.48790039 124.12939941 -57.48790039 124.12939941 -59.00585938 123.24121094 C-59.97845703 122.6537207 -60.95105469 122.06623047 -61.953125 121.4609375 C-62.82614258 120.94063965 -63.69916016 120.4203418 -64.59863281 119.88427734 C-68.5611018 116.77505249 -70.76085272 113.60764909 -71.50793457 108.58544922 C-71.51111694 107.33779785 -71.51429932 106.09014648 -71.51757812 104.8046875 C-71.5245874 104.11119202 -71.53159668 103.41769653 -71.53881836 102.70318604 C-71.55632343 100.42670824 -71.54480371 98.15148889 -71.53125 95.875 C-71.5339471 94.283689 -71.53783134 92.6923796 -71.54284668 91.10107422 C-71.54873154 87.77230071 -71.54021192 84.44395769 -71.52148438 81.11523438 C-71.49869491 76.85808036 -71.5118235 72.60193516 -71.53577423 68.34481812 C-71.55025994 65.06071433 -71.54561364 61.77684793 -71.53526306 58.49273682 C-71.53260341 56.92352172 -71.53583867 55.35428475 -71.54518127 53.78509521 C-71.55539336 51.58792411 -71.5397841 49.39236423 -71.51757812 47.1953125 C-71.51439575 45.94766113 -71.51121338 44.70000977 -71.50793457 43.41455078 C-70.79338293 38.61103276 -68.73424761 35.37700328 -64.93896484 32.36352539 C-63.83609131 31.73692017 -63.83609131 31.73692017 -62.7109375 31.09765625 C-61.86442627 30.60724854 -61.01791504 30.11684082 -60.14575195 29.61157227 C-59.23140381 29.10037842 -58.31705566 28.58918457 -57.375 28.0625 C-56.41875732 27.51327881 -55.46251465 26.96405762 -54.47729492 26.39819336 C-52.41399963 25.2143082 -50.34737817 24.03620507 -48.27783203 22.86328125 C-44.89137708 20.93825338 -41.52039729 18.98827842 -38.15234375 17.03125 C-31.78042025 13.3325426 -25.40719597 9.63736925 -19 6 C-17.47898682 5.1349585 -17.47898682 5.1349585 -15.92724609 4.25244141 C-14.46859131 3.43718994 -14.46859131 3.43718994 -12.98046875 2.60546875 C-12.11703857 2.12102295 -11.2536084 1.63657715 -10.36401367 1.13745117 C-6.68471043 -0.63285491 -3.95110162 -1.11843104 0 0 Z M-32.7421875 50.9140625 C-40.13819859 60.14987735 -43.04848823 70.25988526 -42 82 C-39.48017033 94.25357173 -34.02270091 102.60497348 -24 110 C-15.17222851 115.29666289 -6.12990571 116.10371339 4 115 C12.0498196 112.96010253 18.35813329 109.0340144 24 103 C24.55429688 102.41605469 25.10859375 101.83210938 25.6796875 101.23046875 C31.77652013 94.02649985 34.84175688 84.00601603 34.3828125 74.59765625 C32.71275444 63.26511942 28.60796525 53.53833634 19.6875 46.1875 C2.91253613 33.99524127 -18.4785017 35.24319693 -32.7421875 50.9140625 Z " fill="#111111" transform="translate(96,17)"/>
<path d="M0 0 C6.69319142 0.16391489 11.92064467 4.45442063 16.64453125 8.828125 C28.20967978 20.9795253 37.9074443 37.03885384 39.375 54.0625 C39.01459454 57.95487892 38.33926062 60.25003513 36.0625 63.4375 C32.38965658 64.85655314 30.45218234 64.55296143 26.6875 63.4375 C11.87840245 56.19533168 1.61922681 39.66650933 -4.375 24.875 C-6.3403134 18.95273863 -7.39264324 12.6771001 -6.9375 6.4375 C-3.9654611 0.59060059 -3.9654611 0.59060059 0 0 Z " fill="#111111" transform="translate(75.9375,61.5625)"/>
<path d="M0 0 C0.70125 0.4125 1.4025 0.825 2.125 1.25 C2.74375 1.4975 3.3625 1.745 4 2 C4.9075 1.525625 5.815 1.05125 6.75 0.5625 C10.36593484 -1.17593021 12.23257463 -1.37800437 16.1015625 -0.7109375 C19.63524516 0.61237576 20.9731008 2.86751941 23 6 C23.99044489 9.01614235 24.12862743 11.78620296 24.1328125 14.94921875 C24.13474609 16.34430664 24.13474609 16.34430664 24.13671875 17.76757812 C24.13285156 18.73115234 24.12898438 19.69472656 24.125 20.6875 C24.13080078 22.15026367 24.13080078 22.15026367 24.13671875 23.64257812 C24.13542969 24.56876953 24.13414062 25.49496094 24.1328125 26.44921875 C24.13168457 27.29830811 24.13055664 28.14739746 24.12939453 29.0222168 C24 31 24 31 23 32 C20.83519203 32.0989294 18.66706215 32.129711 16.5 32.125 C15.3140625 32.12757812 14.128125 32.13015625 12.90625 32.1328125 C10 32 10 32 9 31 C8.84379445 29.58672053 8.74943827 28.1664541 8.68359375 26.74609375 C8.64169922 25.89208984 8.59980469 25.03808594 8.55664062 24.15820312 C8.51732422 23.26037109 8.47800781 22.36253906 8.4375 21.4375 C8.39431641 20.53580078 8.35113281 19.63410156 8.30664062 18.70507812 C8.20021858 16.47021515 8.09820012 14.23523692 8 12 C7.34 12 6.68 12 6 12 C5.96241577 12.85549438 5.96241577 12.85549438 5.92407227 13.72827148 C5.80843451 16.29826157 5.68556376 18.86785527 5.5625 21.4375 C5.52318359 22.33533203 5.48386719 23.23316406 5.44335938 24.15820312 C5.38051758 25.43920898 5.38051758 25.43920898 5.31640625 26.74609375 C5.27974854 27.53685303 5.24309082 28.3276123 5.20532227 29.14233398 C5 31 5 31 4 32 C1.81360547 32.07258946 -0.37500389 32.08373783 -2.5625 32.0625 C-4.35880859 32.04896484 -4.35880859 32.04896484 -6.19140625 32.03515625 C-7.11824219 32.02355469 -8.04507813 32.01195312 -9 32 C-10.17426264 29.65147472 -10.11508173 28.26225935 -10.09765625 25.6484375 C-10.09443359 24.79765625 -10.09121094 23.946875 -10.08789062 23.0703125 C-10.07951172 22.18085937 -10.07113281 21.29140625 -10.0625 20.375 C-10.05798828 19.4778125 -10.05347656 18.580625 -10.04882812 17.65625 C-10.03702591 15.43743352 -10.02056155 13.21874982 -10 11 C-10.99 11 -11.98 11 -13 11 C-12.99476318 11.56509277 -12.98952637 12.13018555 -12.98413086 12.71240234 C-12.96337578 15.2665903 -12.9503446 17.82076053 -12.9375 20.375 C-12.92912109 21.26445313 -12.92074219 22.15390625 -12.91210938 23.0703125 C-12.90888672 23.92109375 -12.90566406 24.771875 -12.90234375 25.6484375 C-12.89710693 26.43395996 -12.89187012 27.21948242 -12.88647461 28.02880859 C-13 30 -13 30 -14 32 C-16.14576637 32.02685938 -18.29162645 32.04633088 -20.4375 32.0625 C-21.63246094 32.07410156 -22.82742187 32.08570313 -24.05859375 32.09765625 C-27 32 -27 32 -28 31 C-28.08790975 28.70848583 -28.10694038 26.41427476 -28.09765625 24.12109375 C-28.0962413 23.4344313 -28.09482635 22.74776886 -28.09336853 22.04029846 C-28.08775479 19.83932199 -28.07520007 17.63844591 -28.0625 15.4375 C-28.05748676 13.94856917 -28.05292355 12.45963676 -28.04882812 10.97070312 C-28.03778093 7.31376925 -28.02050713 3.65689442 -28 0 C-25.87506859 -0.02693575 -23.75004088 -0.04636628 -21.625 -0.0625 C-20.44164062 -0.07410156 -19.25828125 -0.08570312 -18.0390625 -0.09765625 C-15 0 -15 0 -13 1 C-12.29875 0.67 -11.5975 0.34 -10.875 0 C-7.02725783 -1.3383451 -3.92621508 -0.92967461 0 0 Z " fill="#000000" transform="translate(255,79)"/>
<path d="M0 0 C3.2830964 2.80978959 5.18781989 5.74010517 6 10 C6.14640279 12.78446839 6.23074488 15.52772889 6.25 18.3125 C6.270625 19.04662109 6.29125 19.78074219 6.3125 20.53710938 C6.35904486 27.09411631 4.94516697 31.6965128 0.625 36.8125 C-4.76968095 40.86522052 -12.30589853 41.15861101 -18.8203125 40.87890625 C-24.67929827 40.00991295 -29.38013901 37.81276973 -33 33 C-35.11451653 28.15570628 -35.3354445 23.7525457 -35.3125 18.5625 C-35.32861328 17.83740234 -35.34472656 17.11230469 -35.36132812 16.36523438 C-35.36725606 9.76744459 -33.98792836 5.03310855 -29.25 0.1875 C-19.99524187 -6.04166412 -9.47191417 -5.38890754 0 0 Z M-17 9 C-19.92941173 14.67573523 -19.71183038 20.96066243 -18 27 C-14.41672247 28.00217064 -14.41672247 28.00217064 -11 27 C-9.97164637 23.91493912 -9.86631566 21.7305728 -9.875 18.5 C-9.87242187 17.5409375 -9.86984375 16.581875 -9.8671875 15.59375 C-9.89007028 12.88428848 -9.89007028 12.88428848 -11 10 C-13.97 9.505 -13.97 9.505 -17 9 Z " fill="#000000" transform="translate(216,71)"/>
<path d="M0 0 C3.20994807 1.84401272 4.59517814 3.10542863 6.1171875 6.46875 C7.32232217 11.2892887 7.25148816 15.86520502 7.1875 20.8125 C7.18685547 21.77865234 7.18621094 22.74480469 7.18554688 23.74023438 C7.14052002 30.85947998 7.14052002 30.85947998 6 32 C3.66839945 32.09909302 1.33370058 32.12970504 -1 32.125 C-2.27875 32.12757812 -3.5575 32.13015625 -4.875 32.1328125 C-8 32 -8 32 -9 31 C-9.15620555 29.58672053 -9.25056173 28.1664541 -9.31640625 26.74609375 C-9.35830078 25.89208984 -9.40019531 25.03808594 -9.44335938 24.15820312 C-9.48267578 23.26037109 -9.52199219 22.36253906 -9.5625 21.4375 C-9.60568359 20.53580078 -9.64886719 19.63410156 -9.69335938 18.70507812 C-9.79978142 16.47021515 -9.90179988 14.23523692 -10 12 C-10.99 12 -11.98 12 -13 12 C-13.02505615 12.57032959 -13.0501123 13.14065918 -13.07592773 13.72827148 C-13.19156549 16.29826157 -13.31443624 18.86785527 -13.4375 21.4375 C-13.47681641 22.33533203 -13.51613281 23.23316406 -13.55664062 24.15820312 C-13.59853516 25.01220703 -13.64042969 25.86621094 -13.68359375 26.74609375 C-13.73858032 27.93223267 -13.73858032 27.93223267 -13.79467773 29.14233398 C-14 31 -14 31 -15 32 C-19.62 32 -24.24 32 -29 32 C-29 21.44 -29 10.88 -29 0 C-24.38 0 -19.76 0 -15 0 C-15 0.66 -15 1.32 -15 2 C-14.195625 1.484375 -13.39125 0.96875 -12.5625 0.4375 C-8.00034591 -1.40336919 -4.71112101 -1.26904736 0 0 Z " fill="#000000" transform="translate(313,79)"/>
<path d="M0 0 C1.66107271 0.79781879 3.29172877 1.6601894 4.8984375 2.5625 C6.35588379 3.37702637 6.35588379 3.37702637 7.84277344 4.20800781 C9.40560059 5.09504395 9.40560059 5.09504395 11 6 C12.07024414 6.60424805 13.14048828 7.20849609 14.24316406 7.83105469 C21.39379775 11.88356561 28.52010555 15.97887954 35.64599609 20.07470703 C38.56910055 21.75265155 41.49676038 23.42226273 44.42578125 25.08984375 C45.93007561 25.95505473 47.43401765 26.82087875 48.9375 27.6875 C49.59766113 28.06036133 50.25782227 28.43322266 50.93798828 28.81738281 C56.02595428 31.77534553 59.73698252 35.10547377 63 40 C63.26742554 43.05378723 63.26742554 43.05378723 63.29052734 46.85473633 C63.29724457 47.54779373 63.30396179 48.24085114 63.31088257 48.95491028 C63.32988809 51.2473568 63.33378829 53.53951083 63.3359375 55.83203125 C63.34236473 57.42762879 63.34909304 59.02322514 63.35610962 60.61882019 C63.36808951 63.96539033 63.37178982 67.3118572 63.37060547 70.65844727 C63.37040248 74.93915428 63.39767991 79.21919589 63.43214989 83.49974537 C63.45443127 86.79667681 63.4584426 90.0934486 63.45738602 93.39044762 C63.45974107 94.96805802 63.46855926 96.5456729 63.48405075 98.123209 C63.50373267 100.33496711 63.49786517 102.54529707 63.48583984 104.75708008 C63.48868988 106.01378006 63.49153992 107.27048004 63.49447632 108.56526184 C62.77697819 113.54915715 60.6256576 116.73286285 56.6796875 119.80859375 C55.75414062 120.34613281 54.82859375 120.88367188 53.875 121.4375 C53.33713867 121.75477051 52.79927734 122.07204102 52.24511719 122.39892578 C50.17200117 123.61460102 48.08595734 124.80648833 46 126 C43.98656435 127.16464775 41.9735811 128.33007778 39.9609375 129.49609375 C35.46254259 132.0985231 30.95937524 134.69244925 26.453125 137.28125 C20.24390155 140.85237674 14.06303562 144.46947891 7.89941406 148.11865234 C1.85741943 151.69259313 -1.92841967 152.95482289 -9 152 C-12.80073182 150.53508977 -16.16164212 148.50484977 -19.625 146.375 C-21.09694824 145.50560791 -21.09694824 145.50560791 -22.59863281 144.61865234 C-24.67596284 143.39036101 -26.7481499 142.15333521 -28.81542969 140.90820312 C-32.0077864 138.99533437 -35.22121985 137.12443804 -38.4453125 135.265625 C-44.31694792 131.87645282 -50.18124284 128.47936254 -56 125 C-57.48790039 124.12939941 -57.48790039 124.12939941 -59.00585938 123.24121094 C-59.97845703 122.6537207 -60.95105469 122.06623047 -61.953125 121.4609375 C-62.82614258 120.94063965 -63.69916016 120.4203418 -64.59863281 119.88427734 C-68.5611018 116.77505249 -70.76085272 113.60764909 -71.50793457 108.58544922 C-71.51111694 107.33779785 -71.51429932 106.09014648 -71.51757812 104.8046875 C-71.5245874 104.11119202 -71.53159668 103.41769653 -71.53881836 102.70318604 C-71.55632343 100.42670824 -71.54480371 98.15148889 -71.53125 95.875 C-71.5339471 94.283689 -71.53783134 92.6923796 -71.54284668 91.10107422 C-71.54873154 87.77230071 -71.54021192 84.44395769 -71.52148438 81.11523438 C-71.49869491 76.85808036 -71.5118235 72.60193516 -71.53577423 68.34481812 C-71.55025994 65.06071433 -71.54561364 61.77684793 -71.53526306 58.49273682 C-71.53260341 56.92352172 -71.53583867 55.35428475 -71.54518127 53.78509521 C-71.55539336 51.58792411 -71.5397841 49.39236423 -71.51757812 47.1953125 C-71.51439575 45.94766113 -71.51121338 44.70000977 -71.50793457 43.41455078 C-70.79338293 38.61103276 -68.73424761 35.37700328 -64.93896484 32.36352539 C-63.83609131 31.73692017 -63.83609131 31.73692017 -62.7109375 31.09765625 C-61.86442627 30.60724854 -61.01791504 30.11684082 -60.14575195 29.61157227 C-59.23140381 29.10037842 -58.31705566 28.58918457 -57.375 28.0625 C-56.41875732 27.51327881 -55.46251465 26.96405762 -54.47729492 26.39819336 C-52.41399963 25.2143082 -50.34737817 24.03620507 -48.27783203 22.86328125 C-44.89137708 20.93825338 -41.52039729 18.98827842 -38.15234375 17.03125 C-31.78042025 13.3325426 -25.40719597 9.63736925 -19 6 C-17.47898682 5.1349585 -17.47898682 5.1349585 -15.92724609 4.25244141 C-14.46859131 3.43718994 -14.46859131 3.43718994 -12.98046875 2.60546875 C-12.11703857 2.12102295 -11.2536084 1.63657715 -10.36401367 1.13745117 C-6.68471043 -0.63285491 -3.95110162 -1.11843104 0 0 Z M-16 6.125 C-16.75837158 6.56513428 -17.51674316 7.00526855 -18.2980957 7.45874023 C-19.96695268 8.42999997 -21.6312375 9.40914705 -23.29150391 10.39501953 C-26.17669433 12.10470421 -29.07677442 13.78679205 -31.98046875 15.46484375 C-37.08038451 18.41592312 -42.16393805 21.39380576 -47.24169922 24.3828125 C-49.7283516 25.84073296 -52.22327367 27.28280794 -54.72265625 28.71875 C-56.06529407 29.49967359 -57.40775799 30.28089628 -58.75 31.0625 C-59.87921875 31.71347656 -61.0084375 32.36445312 -62.171875 33.03515625 C-65.23156005 35.16087666 -66.95199186 36.88945077 -69 40 C-69.60934618 43.36228446 -69.60934618 43.36228446 -69.53344727 47.08178711 C-69.54206284 47.77513657 -69.55067841 48.46848602 -69.55955505 49.18284607 C-69.58217576 51.46472989 -69.57548392 53.74538157 -69.56640625 56.02734375 C-69.57164391 57.62008528 -69.57792091 59.2128237 -69.58518982 60.80555725 C-69.59558698 64.14029558 -69.59104318 67.47460702 -69.57641602 70.80932617 C-69.55923533 75.07450685 -69.58271662 79.33833946 -69.61790562 83.60336971 C-69.63990946 86.89177815 -69.63843095 90.17986556 -69.6301403 93.46832466 C-69.62932228 95.04034465 -69.63615724 96.61238856 -69.65091133 98.18433952 C-69.66841298 100.38666487 -69.65377304 102.58658787 -69.63110352 104.78881836 C-69.63014175 106.03948593 -69.62917999 107.2901535 -69.62818909 108.57872009 C-68.66684883 113.81442726 -65.91310995 116.60381474 -61.61010742 119.74414062 C-60.78357666 120.21013672 -59.9570459 120.67613281 -59.10546875 121.15625 C-58.1611499 121.69717285 -57.21683105 122.2380957 -56.24389648 122.79541016 C-55.23528564 123.3579248 -54.2266748 123.92043945 -53.1875 124.5 C-51.03625735 125.72620996 -48.88522192 126.95278354 -46.734375 128.1796875 C-45.07438477 129.11893066 -45.07438477 129.11893066 -43.38085938 130.07714844 C-37.87113505 133.21078425 -32.40649104 136.42098755 -26.9375 139.625 C-24.09635892 141.28504441 -21.25522796 142.94406797 -18.40185547 144.58300781 C-16.94782357 145.44082456 -15.51225442 146.33275509 -14.11767578 147.28417969 C-9.18074541 150.5658794 -4.71617856 151.09934436 1 150 C5.16281071 148.32918722 8.91483355 146.12659531 12.75 143.8125 C14.37059326 142.8687854 14.37059326 142.8687854 16.02392578 141.90600586 C19.36110035 139.95668065 22.6803426 137.97896961 26 136 C28.04295006 134.80503077 30.0871729 133.61223421 32.1328125 132.421875 C36.6876649 129.76503657 41.21770237 127.06980348 45.73583984 124.35107422 C47.71418343 123.17055304 49.70505319 122.01864901 51.70703125 120.87890625 C52.69058594 120.30011719 53.67414063 119.72132813 54.6875 119.125 C55.47511719 118.67382812 56.26273437 118.22265625 57.07421875 117.7578125 C60.76385224 114.38999289 61.84645538 110.71414141 62.28123474 105.86035156 C62.39725179 101.93513857 62.41769276 98.01611442 62.3984375 94.08984375 C62.40046134 92.6344844 62.40337536 91.17912604 62.40713501 89.72377014 C62.4115424 86.68350506 62.40517792 83.64350554 62.39111328 80.60327148 C62.37400672 76.71733222 62.38388144 72.83201399 62.40183067 68.94609737 C62.41269863 65.94425318 62.40920871 62.94255497 62.4014473 59.94070625 C62.39945439 58.50825488 62.40187245 57.07579 62.40888596 55.64335442 C62.416551 53.63845976 62.40278619 51.63351824 62.38818359 49.62866211 C62.38460342 47.9215934 62.38460342 47.9215934 62.38095093 46.18003845 C61.80639551 41.38386084 60.18284588 38.09350743 56.64355469 34.8215332 C54.04970935 33.03425208 51.44383027 31.40780226 48.703125 29.85546875 C47.15830444 28.9739917 47.15830444 28.9739917 45.58227539 28.07470703 C44.48262451 27.45192871 43.38297363 26.82915039 42.25 26.1875 C39.91943575 24.8574013 37.58968012 23.52604063 35.26171875 22.19140625 C34.66648911 21.85030823 34.07125946 21.50921021 33.45799255 21.15777588 C25.84438476 16.78052878 18.33691914 12.22618774 10.83496094 7.66088867 C9.84915039 7.06381104 8.86333984 6.4667334 7.84765625 5.8515625 C6.98148682 5.32385254 6.11531738 4.79614258 5.22290039 4.25244141 C-2.5831022 -0.14566878 -8.91063451 1.83408978 -16 6.125 Z " fill="#000000" transform="translate(96,17)"/>
<path d="M0 0 C2.31243792 -0.02685412 4.6249627 -0.04632841 6.9375 -0.0625 C8.22527344 -0.07410156 9.51304687 -0.08570312 10.83984375 -0.09765625 C14 0 14 0 15 1 C15.10012401 3.20650656 15.1308118 5.41622386 15.1328125 7.625 C15.13376923 8.28709473 15.13472595 8.94918945 15.13571167 9.63134766 C15.13639326 11.03352961 15.13454042 12.4357147 15.13037109 13.83789062 C15.12502246 15.99095713 15.1303167 18.14381502 15.13671875 20.296875 C15.13605796 21.65625046 15.13477679 23.0156258 15.1328125 24.375 C15.13168457 25.62023437 15.13055664 26.86546875 15.12939453 28.1484375 C15 31 15 31 14 32 C11.83519203 32.0989294 9.66706215 32.129711 7.5 32.125 C6.3140625 32.12757812 5.128125 32.13015625 3.90625 32.1328125 C1 32 1 32 0 31 C-0.08790975 28.70848583 -0.10694038 26.41427476 -0.09765625 24.12109375 C-0.0962413 23.4344313 -0.09482635 22.74776886 -0.09336853 22.04029846 C-0.08775479 19.83932199 -0.07520007 17.63844591 -0.0625 15.4375 C-0.05748676 13.94856917 -0.05292355 12.45963676 -0.04882812 10.97070312 C-0.03778093 7.31376925 -0.02050713 3.65689442 0 0 Z " fill="#000000" transform="translate(325,79)"/>
<path d="M0 0 C7.26343816 6.50683002 12.98492635 14.23958471 14.1796875 24.2265625 C14.1875 26.4296875 14.1875 26.4296875 13.875 29.6796875 C11.78900582 26.55069622 11.09745398 24.16300359 10.125 20.5546875 C7.17282242 10.79730645 2.70885258 3.94787595 -6.125 -1.3203125 C-16.27642119 -6.61670617 -25.55235829 -7.80532497 -36.6875 -4.7578125 C-47.57017935 -1.09611098 -53.97597098 5.54433647 -59.12109375 15.6328125 C-63.77459937 25.87497798 -62.91447768 36.21694483 -59.38671875 46.6640625 C-55.45546856 56.06011559 -48.06173012 62.55340433 -39.01953125 66.91796875 C-30.40315683 70.38228424 -19.18971812 69.94912503 -10.625 66.6171875 C-1.99284689 62.44147116 4.55469489 56.29321116 8.875 47.6796875 C9.819747 44.7574741 10.58419777 41.86800548 11.234375 38.8671875 C11.44578125 38.1453125 11.6571875 37.4234375 11.875 36.6796875 C12.535 36.3496875 13.195 36.0196875 13.875 35.6796875 C13.37903204 45.92969198 9.46343648 54.64439445 1.875 61.6796875 C-7.26832979 69.10528801 -16.91399767 72.43177968 -28.6875 72.0703125 C-36.36837508 71.19748579 -42.9832194 68.35913939 -49.125 63.6796875 C-49.95 63.1228125 -50.775 62.5659375 -51.625 61.9921875 C-60.39587223 53.87913069 -64.666221 42.73552323 -65.21875 30.98046875 C-64.89956085 19.7423508 -60.46446577 10.17866437 -52.9375 1.9296875 C-37.86789085 -12.11093953 -15.99540949 -12.9640214 0 0 Z " fill="#000000" transform="translate(117.125,62.3203125)"/>
<path d="M0 0 C6.69319142 0.16391489 11.92064467 4.45442063 16.64453125 8.828125 C28.20967978 20.9795253 37.9074443 37.03885384 39.375 54.0625 C39.01459454 57.95487892 38.33926062 60.25003513 36.0625 63.4375 C32.38965658 64.85655314 30.45218234 64.55296143 26.6875 63.4375 C11.87840245 56.19533168 1.61922681 39.66650933 -4.375 24.875 C-6.3403134 18.95273863 -7.39264324 12.6771001 -6.9375 6.4375 C-3.9654611 0.59060059 -3.9654611 0.59060059 0 0 Z M-2.9375 2.4375 C-5.4705895 6.23713425 -5.48404993 10.05108646 -4.9375 14.4375 C-1.06410603 32.52968197 9.45991192 50.20482751 25.0625 60.4375 C28.25330691 62.19896776 30.37462639 63.00486517 34.0625 62.4375 C36.08169106 61.05732146 36.08169106 61.05732146 37.0625 58.4375 C38.68345806 43.8488775 30.83982053 29.32243149 22.125 18.125 C14.40133969 8.56588792 14.40133969 8.56588792 4.0625 2.4375 C0.31176796 2.18605688 0.31176796 2.18605688 -2.9375 2.4375 Z " fill="#000000" transform="translate(75.9375,61.5625)"/>
<path d="M0 0 C1.50433594 0.01353516 1.50433594 0.01353516 3.0390625 0.02734375 C3.80992187 0.03894531 4.58078125 0.05054687 5.375 0.0625 C6.86793413 3.59933203 7.79377294 6.18885027 7.375 10.0625 C5.375 12.0625 5.375 12.0625 2.58984375 12.29296875 C1.50832031 12.27878906 0.42679687 12.26460937 -0.6875 12.25 C-2.31365234 12.24033203 -2.31365234 12.24033203 -3.97265625 12.23046875 C-6.625 12.0625 -6.625 12.0625 -7.625 11.0625 C-7.69705511 9.37641034 -7.70886068 7.68749341 -7.6875 6 C-7.67847656 5.08089844 -7.66945313 4.16179687 -7.66015625 3.21484375 C-7.64855469 2.50457031 -7.63695312 1.79429688 -7.625 1.0625 C-4.98041621 -0.25979189 -2.94738699 -0.03427194 0 0 Z " fill="#000000" transform="translate(332.625,64.9375)"/>
</svg>
